<svg width="120" height="120" viewBox="0 0 120 120" fill="none" xmlns="http://www.w3.org/2000/svg">
  <defs>
    <linearGradient id="flame" x1="0" y1="0" x2="120" y2="120" gradientUnits="userSpaceOnUse">
      <stop stop-color="#F05D23"/>
      <stop offset="1" stop-color="#2F80ED"/>
    </linearGradient>
  </defs>
  <rect x="10" y="10" width="100" height="100" rx="24" fill="#0C0B10"/>
  <path d="M60 28C70 40 78 52 78 64C78 77.255 69.255 86 56 86C45.402 86 36 77.255 36 66C36 50 50 40 60 28Z" fill="url(#flame)"/>
  <path d="M60 52C65 58 69 64 69 71C69 79.284 62.284 86 54 86C47.373 86 42 79.284 42 72C42 62 52 58 60 52Z" fill="#F5C542"/>
  <circle cx="86" cy="34" r="6" fill="#F5C542"/>
</svg>
